<mxfile host="app.diagrams.net" modified="2022-07-29T10:07:41.460Z" agent="5.0 (Windows NT 10.0; WOW64) AppleWebKit/537.36 (KHTML, like Gecko) Chrome/75.0.3770.142 Safari/537.36" etag="2xcqgHVyvVwaq0iZGxRQ" version="20.2.2" type="github">
  <diagram id="vbQiUH-Y-CFZcAto1QvN" name="Page-1">
    <mxGraphModel dx="1422" dy="1931" grid="0" gridSize="10" guides="1" tooltips="1" connect="1" arrows="1" fold="1" page="1" pageScale="1" pageWidth="827" pageHeight="1169" math="0" shadow="0">
      <root>
        <mxCell id="0" />
        <mxCell id="1" parent="0" />
        <mxCell id="knBJjmFrqUkN4ZLhKLsM-4" value="" style="edgeStyle=orthogonalEdgeStyle;rounded=0;orthogonalLoop=1;jettySize=auto;html=1;" parent="1" source="knBJjmFrqUkN4ZLhKLsM-1" target="knBJjmFrqUkN4ZLhKLsM-2" edge="1">
          <mxGeometry relative="1" as="geometry" />
        </mxCell>
        <mxCell id="knBJjmFrqUkN4ZLhKLsM-1" value="用户输入设备编号" style="rounded=1;whiteSpace=wrap;html=1;" parent="1" vertex="1">
          <mxGeometry x="280" y="130" width="120" height="60" as="geometry" />
        </mxCell>
        <mxCell id="knBJjmFrqUkN4ZLhKLsM-6" value="" style="edgeStyle=orthogonalEdgeStyle;rounded=0;orthogonalLoop=1;jettySize=auto;html=1;" parent="1" source="knBJjmFrqUkN4ZLhKLsM-2" target="knBJjmFrqUkN4ZLhKLsM-5" edge="1">
          <mxGeometry relative="1" as="geometry" />
        </mxCell>
        <mxCell id="knBJjmFrqUkN4ZLhKLsM-9" value="" style="edgeStyle=orthogonalEdgeStyle;rounded=0;orthogonalLoop=1;jettySize=auto;html=1;" parent="1" source="knBJjmFrqUkN4ZLhKLsM-2" target="knBJjmFrqUkN4ZLhKLsM-8" edge="1">
          <mxGeometry relative="1" as="geometry" />
        </mxCell>
        <mxCell id="knBJjmFrqUkN4ZLhKLsM-2" value="免审批判断" style="rhombus;whiteSpace=wrap;html=1;" parent="1" vertex="1">
          <mxGeometry x="280" y="230" width="120" height="60" as="geometry" />
        </mxCell>
        <mxCell id="knBJjmFrqUkN4ZLhKLsM-42" style="edgeStyle=orthogonalEdgeStyle;rounded=0;orthogonalLoop=1;jettySize=auto;html=1;entryX=1;entryY=0.5;entryDx=0;entryDy=0;" parent="1" source="knBJjmFrqUkN4ZLhKLsM-5" target="knBJjmFrqUkN4ZLhKLsM-25" edge="1">
          <mxGeometry relative="1" as="geometry">
            <mxPoint x="739" y="764" as="targetPoint" />
            <Array as="points">
              <mxPoint x="615" y="263" />
              <mxPoint x="615" y="762" />
            </Array>
          </mxGeometry>
        </mxCell>
        <mxCell id="knBJjmFrqUkN4ZLhKLsM-5" value="公共设备" style="whiteSpace=wrap;html=1;" parent="1" vertex="1">
          <mxGeometry x="473" y="230" width="120" height="60" as="geometry" />
        </mxCell>
        <mxCell id="knBJjmFrqUkN4ZLhKLsM-7" value="Y" style="text;html=1;align=center;verticalAlign=middle;resizable=0;points=[];autosize=1;strokeColor=none;fillColor=none;" parent="1" vertex="1">
          <mxGeometry x="418" y="227" width="30" height="30" as="geometry" />
        </mxCell>
        <object label="" id="knBJjmFrqUkN4ZLhKLsM-47">
          <mxCell style="edgeStyle=orthogonalEdgeStyle;rounded=0;orthogonalLoop=1;jettySize=auto;html=1;" parent="1" source="knBJjmFrqUkN4ZLhKLsM-8" target="knBJjmFrqUkN4ZLhKLsM-46" edge="1">
            <mxGeometry relative="1" as="geometry" />
          </mxCell>
        </object>
        <mxCell id="knBJjmFrqUkN4ZLhKLsM-54" value="N" style="edgeLabel;html=1;align=center;verticalAlign=middle;resizable=0;points=[];" parent="knBJjmFrqUkN4ZLhKLsM-47" vertex="1" connectable="0">
          <mxGeometry x="0.2667" y="-2" relative="1" as="geometry">
            <mxPoint x="6" y="-10" as="offset" />
          </mxGeometry>
        </mxCell>
        <mxCell id="knBJjmFrqUkN4ZLhKLsM-49" value="" style="edgeStyle=orthogonalEdgeStyle;rounded=0;orthogonalLoop=1;jettySize=auto;html=1;entryX=0.5;entryY=0;entryDx=0;entryDy=0;" parent="1" source="knBJjmFrqUkN4ZLhKLsM-8" target="knBJjmFrqUkN4ZLhKLsM-11" edge="1">
          <mxGeometry relative="1" as="geometry">
            <mxPoint x="340" y="424" as="targetPoint" />
          </mxGeometry>
        </mxCell>
        <mxCell id="knBJjmFrqUkN4ZLhKLsM-8" value="ITDB查询Lastuser&lt;br&gt;是否包含Lastuser信息" style="whiteSpace=wrap;html=1;" parent="1" vertex="1">
          <mxGeometry x="280" y="334" width="120" height="56" as="geometry" />
        </mxCell>
        <mxCell id="knBJjmFrqUkN4ZLhKLsM-10" value="N" style="text;html=1;align=center;verticalAlign=middle;resizable=0;points=[];autosize=1;strokeColor=none;fillColor=none;" parent="1" vertex="1">
          <mxGeometry x="335" y="300" width="30" height="30" as="geometry" />
        </mxCell>
        <mxCell id="knBJjmFrqUkN4ZLhKLsM-14" value="" style="edgeStyle=orthogonalEdgeStyle;rounded=0;orthogonalLoop=1;jettySize=auto;html=1;" parent="1" source="knBJjmFrqUkN4ZLhKLsM-11" target="knBJjmFrqUkN4ZLhKLsM-13" edge="1">
          <mxGeometry relative="1" as="geometry" />
        </mxCell>
        <mxCell id="knBJjmFrqUkN4ZLhKLsM-17" value="" style="edgeStyle=orthogonalEdgeStyle;rounded=0;orthogonalLoop=1;jettySize=auto;html=1;" parent="1" source="knBJjmFrqUkN4ZLhKLsM-11" target="knBJjmFrqUkN4ZLhKLsM-16" edge="1">
          <mxGeometry relative="1" as="geometry" />
        </mxCell>
        <mxCell id="knBJjmFrqUkN4ZLhKLsM-11" value="VP" style="rhombus;whiteSpace=wrap;html=1;" parent="1" vertex="1">
          <mxGeometry x="280" y="440" width="120" height="60" as="geometry" />
        </mxCell>
        <mxCell id="knBJjmFrqUkN4ZLhKLsM-21" style="edgeStyle=orthogonalEdgeStyle;rounded=0;orthogonalLoop=1;jettySize=auto;html=1;" parent="1" source="knBJjmFrqUkN4ZLhKLsM-13" edge="1">
          <mxGeometry relative="1" as="geometry">
            <mxPoint x="345" y="631" as="targetPoint" />
            <Array as="points">
              <mxPoint x="530" y="631" />
            </Array>
          </mxGeometry>
        </mxCell>
        <mxCell id="knBJjmFrqUkN4ZLhKLsM-13" value="获取助理信息&lt;br&gt;并发起审批请求" style="whiteSpace=wrap;html=1;" parent="1" vertex="1">
          <mxGeometry x="480" y="440" width="120" height="60" as="geometry" />
        </mxCell>
        <mxCell id="knBJjmFrqUkN4ZLhKLsM-15" value="Y" style="text;html=1;align=center;verticalAlign=middle;resizable=0;points=[];autosize=1;strokeColor=none;fillColor=none;" parent="1" vertex="1">
          <mxGeometry x="425" y="444" width="30" height="30" as="geometry" />
        </mxCell>
        <mxCell id="knBJjmFrqUkN4ZLhKLsM-20" value="" style="edgeStyle=orthogonalEdgeStyle;rounded=0;orthogonalLoop=1;jettySize=auto;html=1;" parent="1" source="knBJjmFrqUkN4ZLhKLsM-16" edge="1">
          <mxGeometry relative="1" as="geometry">
            <mxPoint x="340" y="635" as="targetPoint" />
          </mxGeometry>
        </mxCell>
        <mxCell id="knBJjmFrqUkN4ZLhKLsM-16" value="向LastUser/EAM Owner发起审批请求" style="whiteSpace=wrap;html=1;" parent="1" vertex="1">
          <mxGeometry x="280" y="540" width="120" height="50" as="geometry" />
        </mxCell>
        <mxCell id="knBJjmFrqUkN4ZLhKLsM-18" value="N" style="text;html=1;align=center;verticalAlign=middle;resizable=0;points=[];autosize=1;strokeColor=none;fillColor=none;" parent="1" vertex="1">
          <mxGeometry x="345" y="505" width="30" height="30" as="geometry" />
        </mxCell>
        <mxCell id="knBJjmFrqUkN4ZLhKLsM-23" value="" style="edgeStyle=orthogonalEdgeStyle;rounded=0;orthogonalLoop=1;jettySize=auto;html=1;" parent="1" source="knBJjmFrqUkN4ZLhKLsM-19" target="knBJjmFrqUkN4ZLhKLsM-22" edge="1">
          <mxGeometry relative="1" as="geometry" />
        </mxCell>
        <mxCell id="knBJjmFrqUkN4ZLhKLsM-26" value="" style="edgeStyle=orthogonalEdgeStyle;rounded=0;orthogonalLoop=1;jettySize=auto;html=1;" parent="1" source="knBJjmFrqUkN4ZLhKLsM-19" target="knBJjmFrqUkN4ZLhKLsM-25" edge="1">
          <mxGeometry relative="1" as="geometry" />
        </mxCell>
        <mxCell id="knBJjmFrqUkN4ZLhKLsM-19" value="审批" style="rhombus;whiteSpace=wrap;html=1;" parent="1" vertex="1">
          <mxGeometry x="280" y="636" width="120" height="60" as="geometry" />
        </mxCell>
        <mxCell id="knBJjmFrqUkN4ZLhKLsM-34" style="edgeStyle=orthogonalEdgeStyle;rounded=0;orthogonalLoop=1;jettySize=auto;html=1;entryX=0;entryY=0.5;entryDx=0;entryDy=0;" parent="1" source="knBJjmFrqUkN4ZLhKLsM-22" target="knBJjmFrqUkN4ZLhKLsM-29" edge="1">
          <mxGeometry relative="1" as="geometry">
            <Array as="points">
              <mxPoint x="175" y="859" />
            </Array>
          </mxGeometry>
        </mxCell>
        <mxCell id="knBJjmFrqUkN4ZLhKLsM-22" value="拒绝" style="whiteSpace=wrap;html=1;" parent="1" vertex="1">
          <mxGeometry x="120" y="636" width="115" height="60" as="geometry" />
        </mxCell>
        <mxCell id="knBJjmFrqUkN4ZLhKLsM-24" value="N" style="text;html=1;align=center;verticalAlign=middle;resizable=0;points=[];autosize=1;strokeColor=none;fillColor=none;" parent="1" vertex="1">
          <mxGeometry x="245" y="641" width="30" height="30" as="geometry" />
        </mxCell>
        <mxCell id="knBJjmFrqUkN4ZLhKLsM-30" value="" style="edgeStyle=orthogonalEdgeStyle;rounded=0;orthogonalLoop=1;jettySize=auto;html=1;" parent="1" source="knBJjmFrqUkN4ZLhKLsM-25" target="knBJjmFrqUkN4ZLhKLsM-29" edge="1">
          <mxGeometry relative="1" as="geometry" />
        </mxCell>
        <mxCell id="knBJjmFrqUkN4ZLhKLsM-25" value="查询设备pwd" style="whiteSpace=wrap;html=1;" parent="1" vertex="1">
          <mxGeometry x="280" y="737" width="120" height="50" as="geometry" />
        </mxCell>
        <mxCell id="knBJjmFrqUkN4ZLhKLsM-27" value="Y" style="text;html=1;align=center;verticalAlign=middle;resizable=0;points=[];autosize=1;strokeColor=none;fillColor=none;" parent="1" vertex="1">
          <mxGeometry x="1410" y="1540" width="30" height="30" as="geometry" />
        </mxCell>
        <mxCell id="knBJjmFrqUkN4ZLhKLsM-28" value="Y" style="text;html=1;align=center;verticalAlign=middle;resizable=0;points=[];autosize=1;strokeColor=none;fillColor=none;" parent="1" vertex="1">
          <mxGeometry x="343" y="705" width="30" height="30" as="geometry" />
        </mxCell>
        <mxCell id="knBJjmFrqUkN4ZLhKLsM-36" value="" style="edgeStyle=orthogonalEdgeStyle;rounded=0;orthogonalLoop=1;jettySize=auto;html=1;" parent="1" source="knBJjmFrqUkN4ZLhKLsM-29" target="knBJjmFrqUkN4ZLhKLsM-35" edge="1">
          <mxGeometry relative="1" as="geometry" />
        </mxCell>
        <mxCell id="knBJjmFrqUkN4ZLhKLsM-29" value="数据保存，返回结果" style="ellipse;whiteSpace=wrap;html=1;" parent="1" vertex="1">
          <mxGeometry x="280" y="826" width="120" height="65" as="geometry" />
        </mxCell>
        <mxCell id="knBJjmFrqUkN4ZLhKLsM-38" value="" style="edgeStyle=orthogonalEdgeStyle;rounded=0;orthogonalLoop=1;jettySize=auto;html=1;" parent="1" source="knBJjmFrqUkN4ZLhKLsM-35" edge="1">
          <mxGeometry relative="1" as="geometry">
            <mxPoint x="624" y="858.5" as="targetPoint" />
          </mxGeometry>
        </mxCell>
        <mxCell id="knBJjmFrqUkN4ZLhKLsM-35" value="1.5小时后&lt;br&gt;重置密码标记" style="shape=process;whiteSpace=wrap;html=1;backgroundOutline=1;" parent="1" vertex="1">
          <mxGeometry x="452" y="828.5" width="120" height="60" as="geometry" />
        </mxCell>
        <mxCell id="knBJjmFrqUkN4ZLhKLsM-41" value="记录本次查询信息&lt;br&gt;（查询人、时间、设备、审批单）" style="shape=document;whiteSpace=wrap;html=1;boundedLbl=1;" parent="1" vertex="1">
          <mxGeometry x="624" y="822" width="120" height="80" as="geometry" />
        </mxCell>
        <mxCell id="knBJjmFrqUkN4ZLhKLsM-43" value="标记免审批设备" style="text;html=1;align=center;verticalAlign=middle;resizable=0;points=[];autosize=1;strokeColor=none;fillColor=none;" parent="1" vertex="1">
          <mxGeometry x="458" y="737" width="102" height="26" as="geometry" />
        </mxCell>
        <mxCell id="knBJjmFrqUkN4ZLhKLsM-56" value="" style="edgeStyle=orthogonalEdgeStyle;rounded=0;orthogonalLoop=1;jettySize=auto;html=1;" parent="1" source="knBJjmFrqUkN4ZLhKLsM-46" target="knBJjmFrqUkN4ZLhKLsM-55" edge="1">
          <mxGeometry relative="1" as="geometry" />
        </mxCell>
        <mxCell id="knBJjmFrqUkN4ZLhKLsM-46" value="EAM系统查询Owner" style="whiteSpace=wrap;html=1;" parent="1" vertex="1">
          <mxGeometry x="115" y="332" width="120" height="60" as="geometry" />
        </mxCell>
        <mxCell id="knBJjmFrqUkN4ZLhKLsM-50" value="Y" style="text;html=1;align=center;verticalAlign=middle;resizable=0;points=[];autosize=1;strokeColor=none;fillColor=none;" parent="1" vertex="1">
          <mxGeometry x="316" y="391" width="30" height="30" as="geometry" />
        </mxCell>
        <mxCell id="knBJjmFrqUkN4ZLhKLsM-57" value="Y&lt;br&gt;" style="edgeStyle=orthogonalEdgeStyle;rounded=0;orthogonalLoop=1;jettySize=auto;html=1;" parent="1" edge="1">
          <mxGeometry x="-0.2" y="10" relative="1" as="geometry">
            <mxPoint x="231" y="470" as="sourcePoint" />
            <mxPoint x="281" y="470" as="targetPoint" />
            <mxPoint as="offset" />
          </mxGeometry>
        </mxCell>
        <mxCell id="knBJjmFrqUkN4ZLhKLsM-58" style="edgeStyle=orthogonalEdgeStyle;rounded=0;orthogonalLoop=1;jettySize=auto;html=1;entryX=0;entryY=0.5;entryDx=0;entryDy=0;" parent="1" source="knBJjmFrqUkN4ZLhKLsM-55" target="knBJjmFrqUkN4ZLhKLsM-29" edge="1">
          <mxGeometry relative="1" as="geometry">
            <Array as="points">
              <mxPoint x="100" y="470" />
              <mxPoint x="100" y="859" />
            </Array>
          </mxGeometry>
        </mxCell>
        <mxCell id="knBJjmFrqUkN4ZLhKLsM-59" value="N" style="edgeLabel;html=1;align=center;verticalAlign=middle;resizable=0;points=[];" parent="knBJjmFrqUkN4ZLhKLsM-58" vertex="1" connectable="0">
          <mxGeometry x="0.1249" y="1" relative="1" as="geometry">
            <mxPoint x="-21" y="-281" as="offset" />
          </mxGeometry>
        </mxCell>
        <mxCell id="knBJjmFrqUkN4ZLhKLsM-55" value="是否有Owner" style="rhombus;whiteSpace=wrap;html=1;" parent="1" vertex="1">
          <mxGeometry x="120" y="446" width="110" height="48" as="geometry" />
        </mxCell>
        <object label="Password Query Log Table" computer_no="编号" placeholders="1" id="2MrhT0dnpiUWP16GjqeY-18">
          <mxCell style="shape=table;startSize=30;container=1;collapsible=1;childLayout=tableLayout;fixedRows=1;rowLines=0;fontStyle=1;align=center;resizeLast=1;" vertex="1" parent="1">
            <mxGeometry x="24" y="-211" width="1251" height="191" as="geometry" />
          </mxCell>
        </object>
        <mxCell id="2MrhT0dnpiUWP16GjqeY-19" value="" style="shape=tableRow;horizontal=0;startSize=0;swimlaneHead=0;swimlaneBody=0;fillColor=none;collapsible=0;dropTarget=0;points=[[0,0.5],[1,0.5]];portConstraint=eastwest;top=0;left=0;right=0;bottom=1;" vertex="1" parent="2MrhT0dnpiUWP16GjqeY-18">
          <mxGeometry y="30" width="1251" height="26" as="geometry" />
        </mxCell>
        <mxCell id="2MrhT0dnpiUWP16GjqeY-31" style="shape=partialRectangle;connectable=0;fillColor=none;top=0;left=0;bottom=0;right=0;fontStyle=1;overflow=hidden;" vertex="1" parent="2MrhT0dnpiUWP16GjqeY-19">
          <mxGeometry width="30" height="26" as="geometry">
            <mxRectangle width="30" height="26" as="alternateBounds" />
          </mxGeometry>
        </mxCell>
        <mxCell id="2MrhT0dnpiUWP16GjqeY-20" value="PK" style="shape=partialRectangle;connectable=0;fillColor=none;top=0;left=0;bottom=0;right=0;fontStyle=1;overflow=hidden;" vertex="1" parent="2MrhT0dnpiUWP16GjqeY-19">
          <mxGeometry x="30" width="30" height="26" as="geometry">
            <mxRectangle width="30" height="26" as="alternateBounds" />
          </mxGeometry>
        </mxCell>
        <mxCell id="2MrhT0dnpiUWP16GjqeY-21" value="id" style="shape=partialRectangle;connectable=0;fillColor=none;top=0;left=0;bottom=0;right=0;align=left;spacingLeft=6;fontStyle=5;overflow=hidden;" vertex="1" parent="2MrhT0dnpiUWP16GjqeY-19">
          <mxGeometry x="60" width="52.75" height="26" as="geometry">
            <mxRectangle width="52.75" height="26" as="alternateBounds" />
          </mxGeometry>
        </mxCell>
        <mxCell id="2MrhT0dnpiUWP16GjqeY-35" value="computer_no" style="shape=partialRectangle;connectable=0;fillColor=none;top=0;left=0;bottom=0;right=0;align=left;spacingLeft=6;fontStyle=1;overflow=hidden;" vertex="1" parent="2MrhT0dnpiUWP16GjqeY-19">
          <mxGeometry x="112.75" width="90" height="26" as="geometry">
            <mxRectangle width="90" height="26" as="alternateBounds" />
          </mxGeometry>
        </mxCell>
        <mxCell id="2MrhT0dnpiUWP16GjqeY-39" value="query_empcode" style="shape=partialRectangle;connectable=0;fillColor=none;top=0;left=0;bottom=0;right=0;align=left;spacingLeft=6;fontStyle=1;overflow=hidden;" vertex="1" parent="2MrhT0dnpiUWP16GjqeY-19">
          <mxGeometry x="202.75" width="110" height="26" as="geometry">
            <mxRectangle width="110" height="26" as="alternateBounds" />
          </mxGeometry>
        </mxCell>
        <mxCell id="2MrhT0dnpiUWP16GjqeY-43" value="query_user" style="shape=partialRectangle;connectable=0;fillColor=none;top=0;left=0;bottom=0;right=0;align=left;spacingLeft=6;fontStyle=1;overflow=hidden;" vertex="1" parent="2MrhT0dnpiUWP16GjqeY-19">
          <mxGeometry x="312.75" width="80" height="26" as="geometry">
            <mxRectangle width="80" height="26" as="alternateBounds" />
          </mxGeometry>
        </mxCell>
        <mxCell id="2MrhT0dnpiUWP16GjqeY-47" value="query_date" style="shape=partialRectangle;connectable=0;fillColor=none;top=0;left=0;bottom=0;right=0;align=left;spacingLeft=6;fontStyle=1;overflow=hidden;" vertex="1" parent="2MrhT0dnpiUWP16GjqeY-19">
          <mxGeometry x="392.75" width="77" height="26" as="geometry">
            <mxRectangle width="77" height="26" as="alternateBounds" />
          </mxGeometry>
        </mxCell>
        <mxCell id="2MrhT0dnpiUWP16GjqeY-55" value="result_data" style="shape=partialRectangle;connectable=0;fillColor=none;top=0;left=0;bottom=0;right=0;align=left;spacingLeft=6;fontStyle=1;overflow=hidden;" vertex="1" parent="2MrhT0dnpiUWP16GjqeY-19">
          <mxGeometry x="469.75" width="75" height="26" as="geometry">
            <mxRectangle width="75" height="26" as="alternateBounds" />
          </mxGeometry>
        </mxCell>
        <mxCell id="2MrhT0dnpiUWP16GjqeY-51" value="is_approval_free" style="shape=partialRectangle;connectable=0;fillColor=none;top=0;left=0;bottom=0;right=0;align=left;spacingLeft=6;fontStyle=1;overflow=hidden;" vertex="1" parent="2MrhT0dnpiUWP16GjqeY-19">
          <mxGeometry x="544.75" width="99" height="26" as="geometry">
            <mxRectangle width="99" height="26" as="alternateBounds" />
          </mxGeometry>
        </mxCell>
        <mxCell id="2MrhT0dnpiUWP16GjqeY-59" value="is_audit" style="shape=partialRectangle;connectable=0;fillColor=none;top=0;left=0;bottom=0;right=0;align=left;spacingLeft=6;fontStyle=1;overflow=hidden;" vertex="1" parent="2MrhT0dnpiUWP16GjqeY-19">
          <mxGeometry x="643.75" width="87.25" height="26" as="geometry">
            <mxRectangle width="87.25" height="26" as="alternateBounds" />
          </mxGeometry>
        </mxCell>
        <mxCell id="2MrhT0dnpiUWP16GjqeY-63" value="audit_user_dsipname" style="shape=partialRectangle;connectable=0;fillColor=none;top=0;left=0;bottom=0;right=0;align=left;spacingLeft=6;fontStyle=5;overflow=hidden;" vertex="1" parent="2MrhT0dnpiUWP16GjqeY-19">
          <mxGeometry x="731" width="138" height="26" as="geometry">
            <mxRectangle width="138" height="26" as="alternateBounds" />
          </mxGeometry>
        </mxCell>
        <mxCell id="2MrhT0dnpiUWP16GjqeY-67" value="audit_user_empcode" style="shape=partialRectangle;connectable=0;fillColor=none;top=0;left=0;bottom=0;right=0;align=left;spacingLeft=6;fontStyle=5;overflow=hidden;" vertex="1" parent="2MrhT0dnpiUWP16GjqeY-19">
          <mxGeometry x="869" width="138" height="26" as="geometry">
            <mxRectangle width="138" height="26" as="alternateBounds" />
          </mxGeometry>
        </mxCell>
        <mxCell id="2MrhT0dnpiUWP16GjqeY-71" value="audit_ticket" style="shape=partialRectangle;connectable=0;fillColor=none;top=0;left=0;bottom=0;right=0;align=left;spacingLeft=6;fontStyle=5;overflow=hidden;" vertex="1" parent="2MrhT0dnpiUWP16GjqeY-19">
          <mxGeometry x="1007" width="88.75" height="26" as="geometry">
            <mxRectangle width="88.75" height="26" as="alternateBounds" />
          </mxGeometry>
        </mxCell>
        <mxCell id="2MrhT0dnpiUWP16GjqeY-75" value="reset_pwd" style="shape=partialRectangle;connectable=0;fillColor=none;top=0;left=0;bottom=0;right=0;align=left;spacingLeft=6;fontStyle=5;overflow=hidden;" vertex="1" parent="2MrhT0dnpiUWP16GjqeY-19">
          <mxGeometry x="1095.75" width="88.75" height="26" as="geometry">
            <mxRectangle width="88.75" height="26" as="alternateBounds" />
          </mxGeometry>
        </mxCell>
        <mxCell id="2MrhT0dnpiUWP16GjqeY-79" value="reset_date" style="shape=partialRectangle;connectable=0;fillColor=none;top=0;left=0;bottom=0;right=0;align=left;spacingLeft=6;fontStyle=5;overflow=hidden;" vertex="1" parent="2MrhT0dnpiUWP16GjqeY-19">
          <mxGeometry x="1184.5" width="66.5" height="26" as="geometry">
            <mxRectangle width="66.5" height="26" as="alternateBounds" />
          </mxGeometry>
        </mxCell>
        <mxCell id="2MrhT0dnpiUWP16GjqeY-22" value="" style="shape=tableRow;horizontal=0;startSize=0;swimlaneHead=0;swimlaneBody=0;fillColor=none;collapsible=0;dropTarget=0;points=[[0,0.5],[1,0.5]];portConstraint=eastwest;top=0;left=0;right=0;bottom=0;" vertex="1" parent="2MrhT0dnpiUWP16GjqeY-18">
          <mxGeometry y="56" width="1251" height="72" as="geometry" />
        </mxCell>
        <mxCell id="2MrhT0dnpiUWP16GjqeY-32" style="shape=partialRectangle;connectable=0;fillColor=none;top=0;left=0;bottom=0;right=0;editable=1;overflow=hidden;" vertex="1" parent="2MrhT0dnpiUWP16GjqeY-22">
          <mxGeometry width="30" height="72" as="geometry">
            <mxRectangle width="30" height="72" as="alternateBounds" />
          </mxGeometry>
        </mxCell>
        <mxCell id="2MrhT0dnpiUWP16GjqeY-23" value="" style="shape=partialRectangle;connectable=0;fillColor=none;top=0;left=0;bottom=0;right=0;editable=1;overflow=hidden;" vertex="1" parent="2MrhT0dnpiUWP16GjqeY-22">
          <mxGeometry x="30" width="30" height="72" as="geometry">
            <mxRectangle width="30" height="72" as="alternateBounds" />
          </mxGeometry>
        </mxCell>
        <mxCell id="2MrhT0dnpiUWP16GjqeY-24" value="Row 1" style="shape=partialRectangle;connectable=0;fillColor=none;top=0;left=0;bottom=0;right=0;align=left;spacingLeft=6;overflow=hidden;" vertex="1" parent="2MrhT0dnpiUWP16GjqeY-22">
          <mxGeometry x="60" width="52.75" height="72" as="geometry">
            <mxRectangle width="52.75" height="72" as="alternateBounds" />
          </mxGeometry>
        </mxCell>
        <mxCell id="2MrhT0dnpiUWP16GjqeY-36" value="查询设备" style="shape=partialRectangle;connectable=0;fillColor=none;top=0;left=0;bottom=0;right=0;align=left;spacingLeft=6;overflow=hidden;" vertex="1" parent="2MrhT0dnpiUWP16GjqeY-22">
          <mxGeometry x="112.75" width="90" height="72" as="geometry">
            <mxRectangle width="90" height="72" as="alternateBounds" />
          </mxGeometry>
        </mxCell>
        <mxCell id="2MrhT0dnpiUWP16GjqeY-40" value="查询员工号        " style="shape=partialRectangle;connectable=0;fillColor=none;top=0;left=0;bottom=0;right=0;align=left;spacingLeft=6;overflow=hidden;" vertex="1" parent="2MrhT0dnpiUWP16GjqeY-22">
          <mxGeometry x="202.75" width="110" height="72" as="geometry">
            <mxRectangle width="110" height="72" as="alternateBounds" />
          </mxGeometry>
        </mxCell>
        <mxCell id="2MrhT0dnpiUWP16GjqeY-44" value="查询账号" style="shape=partialRectangle;connectable=0;fillColor=none;top=0;left=0;bottom=0;right=0;align=left;spacingLeft=6;overflow=hidden;" vertex="1" parent="2MrhT0dnpiUWP16GjqeY-22">
          <mxGeometry x="312.75" width="80" height="72" as="geometry">
            <mxRectangle width="80" height="72" as="alternateBounds" />
          </mxGeometry>
        </mxCell>
        <mxCell id="2MrhT0dnpiUWP16GjqeY-48" value="查询时间" style="shape=partialRectangle;connectable=0;fillColor=none;top=0;left=0;bottom=0;right=0;align=left;spacingLeft=6;overflow=hidden;" vertex="1" parent="2MrhT0dnpiUWP16GjqeY-22">
          <mxGeometry x="392.75" width="77" height="72" as="geometry">
            <mxRectangle width="77" height="72" as="alternateBounds" />
          </mxGeometry>
        </mxCell>
        <mxCell id="2MrhT0dnpiUWP16GjqeY-56" value="返回结果：&#xa;1、无使用人&#xa;2、审批拒绝&#xa;3、pwd" style="shape=partialRectangle;connectable=0;fillColor=none;top=0;left=0;bottom=0;right=0;align=left;spacingLeft=6;overflow=hidden;" vertex="1" parent="2MrhT0dnpiUWP16GjqeY-22">
          <mxGeometry x="469.75" width="75" height="72" as="geometry">
            <mxRectangle width="75" height="72" as="alternateBounds" />
          </mxGeometry>
        </mxCell>
        <mxCell id="2MrhT0dnpiUWP16GjqeY-52" value="1：免审批&#xa;2：需审批" style="shape=partialRectangle;connectable=0;fillColor=none;top=0;left=0;bottom=0;right=0;align=left;spacingLeft=6;overflow=hidden;" vertex="1" parent="2MrhT0dnpiUWP16GjqeY-22">
          <mxGeometry x="544.75" width="99" height="72" as="geometry">
            <mxRectangle width="99" height="72" as="alternateBounds" />
          </mxGeometry>
        </mxCell>
        <mxCell id="2MrhT0dnpiUWP16GjqeY-60" value="1、免审批&#xa;2、审批中&#xa;3、审批通过&#xa;4、审批拒绝" style="shape=partialRectangle;connectable=0;fillColor=none;top=0;left=0;bottom=0;right=0;align=left;spacingLeft=6;overflow=hidden;" vertex="1" parent="2MrhT0dnpiUWP16GjqeY-22">
          <mxGeometry x="643.75" width="87.25" height="72" as="geometry">
            <mxRectangle width="87.25" height="72" as="alternateBounds" />
          </mxGeometry>
        </mxCell>
        <mxCell id="2MrhT0dnpiUWP16GjqeY-64" value="审批用户名字" style="shape=partialRectangle;connectable=0;fillColor=none;top=0;left=0;bottom=0;right=0;align=left;spacingLeft=6;overflow=hidden;" vertex="1" parent="2MrhT0dnpiUWP16GjqeY-22">
          <mxGeometry x="731" width="138" height="72" as="geometry">
            <mxRectangle width="138" height="72" as="alternateBounds" />
          </mxGeometry>
        </mxCell>
        <mxCell id="2MrhT0dnpiUWP16GjqeY-68" value="审批人工号" style="shape=partialRectangle;connectable=0;fillColor=none;top=0;left=0;bottom=0;right=0;align=left;spacingLeft=6;overflow=hidden;" vertex="1" parent="2MrhT0dnpiUWP16GjqeY-22">
          <mxGeometry x="869" width="138" height="72" as="geometry">
            <mxRectangle width="138" height="72" as="alternateBounds" />
          </mxGeometry>
        </mxCell>
        <mxCell id="2MrhT0dnpiUWP16GjqeY-72" value="审批单据号" style="shape=partialRectangle;connectable=0;fillColor=none;top=0;left=0;bottom=0;right=0;align=left;spacingLeft=6;overflow=hidden;" vertex="1" parent="2MrhT0dnpiUWP16GjqeY-22">
          <mxGeometry x="1007" width="88.75" height="72" as="geometry">
            <mxRectangle width="88.75" height="72" as="alternateBounds" />
          </mxGeometry>
        </mxCell>
        <mxCell id="2MrhT0dnpiUWP16GjqeY-76" value="重置密码：&#xa;1、未重置&#xa;2、已重置" style="shape=partialRectangle;connectable=0;fillColor=none;top=0;left=0;bottom=0;right=0;align=left;spacingLeft=6;overflow=hidden;" vertex="1" parent="2MrhT0dnpiUWP16GjqeY-22">
          <mxGeometry x="1095.75" width="88.75" height="72" as="geometry">
            <mxRectangle width="88.75" height="72" as="alternateBounds" />
          </mxGeometry>
        </mxCell>
        <mxCell id="2MrhT0dnpiUWP16GjqeY-80" value="重置时间" style="shape=partialRectangle;connectable=0;fillColor=none;top=0;left=0;bottom=0;right=0;align=left;spacingLeft=6;overflow=hidden;" vertex="1" parent="2MrhT0dnpiUWP16GjqeY-22">
          <mxGeometry x="1184.5" width="66.5" height="72" as="geometry">
            <mxRectangle width="66.5" height="72" as="alternateBounds" />
          </mxGeometry>
        </mxCell>
        <mxCell id="2MrhT0dnpiUWP16GjqeY-25" value="" style="shape=tableRow;horizontal=0;startSize=0;swimlaneHead=0;swimlaneBody=0;fillColor=none;collapsible=0;dropTarget=0;points=[[0,0.5],[1,0.5]];portConstraint=eastwest;top=0;left=0;right=0;bottom=0;" vertex="1" parent="2MrhT0dnpiUWP16GjqeY-18">
          <mxGeometry y="128" width="1251" height="30" as="geometry" />
        </mxCell>
        <mxCell id="2MrhT0dnpiUWP16GjqeY-33" style="shape=partialRectangle;connectable=0;fillColor=none;top=0;left=0;bottom=0;right=0;editable=1;overflow=hidden;" vertex="1" parent="2MrhT0dnpiUWP16GjqeY-25">
          <mxGeometry width="30" height="30" as="geometry">
            <mxRectangle width="30" height="30" as="alternateBounds" />
          </mxGeometry>
        </mxCell>
        <mxCell id="2MrhT0dnpiUWP16GjqeY-26" value="" style="shape=partialRectangle;connectable=0;fillColor=none;top=0;left=0;bottom=0;right=0;editable=1;overflow=hidden;" vertex="1" parent="2MrhT0dnpiUWP16GjqeY-25">
          <mxGeometry x="30" width="30" height="30" as="geometry">
            <mxRectangle width="30" height="30" as="alternateBounds" />
          </mxGeometry>
        </mxCell>
        <mxCell id="2MrhT0dnpiUWP16GjqeY-27" value="Row 2" style="shape=partialRectangle;connectable=0;fillColor=none;top=0;left=0;bottom=0;right=0;align=left;spacingLeft=6;overflow=hidden;" vertex="1" parent="2MrhT0dnpiUWP16GjqeY-25">
          <mxGeometry x="60" width="52.75" height="30" as="geometry">
            <mxRectangle width="52.75" height="30" as="alternateBounds" />
          </mxGeometry>
        </mxCell>
        <mxCell id="2MrhT0dnpiUWP16GjqeY-37" style="shape=partialRectangle;connectable=0;fillColor=none;top=0;left=0;bottom=0;right=0;align=left;spacingLeft=6;overflow=hidden;" vertex="1" parent="2MrhT0dnpiUWP16GjqeY-25">
          <mxGeometry x="112.75" width="90" height="30" as="geometry">
            <mxRectangle width="90" height="30" as="alternateBounds" />
          </mxGeometry>
        </mxCell>
        <mxCell id="2MrhT0dnpiUWP16GjqeY-41" style="shape=partialRectangle;connectable=0;fillColor=none;top=0;left=0;bottom=0;right=0;align=left;spacingLeft=6;overflow=hidden;" vertex="1" parent="2MrhT0dnpiUWP16GjqeY-25">
          <mxGeometry x="202.75" width="110" height="30" as="geometry">
            <mxRectangle width="110" height="30" as="alternateBounds" />
          </mxGeometry>
        </mxCell>
        <mxCell id="2MrhT0dnpiUWP16GjqeY-45" style="shape=partialRectangle;connectable=0;fillColor=none;top=0;left=0;bottom=0;right=0;align=left;spacingLeft=6;overflow=hidden;" vertex="1" parent="2MrhT0dnpiUWP16GjqeY-25">
          <mxGeometry x="312.75" width="80" height="30" as="geometry">
            <mxRectangle width="80" height="30" as="alternateBounds" />
          </mxGeometry>
        </mxCell>
        <mxCell id="2MrhT0dnpiUWP16GjqeY-49" style="shape=partialRectangle;connectable=0;fillColor=none;top=0;left=0;bottom=0;right=0;align=left;spacingLeft=6;overflow=hidden;" vertex="1" parent="2MrhT0dnpiUWP16GjqeY-25">
          <mxGeometry x="392.75" width="77" height="30" as="geometry">
            <mxRectangle width="77" height="30" as="alternateBounds" />
          </mxGeometry>
        </mxCell>
        <mxCell id="2MrhT0dnpiUWP16GjqeY-57" style="shape=partialRectangle;connectable=0;fillColor=none;top=0;left=0;bottom=0;right=0;align=left;spacingLeft=6;overflow=hidden;" vertex="1" parent="2MrhT0dnpiUWP16GjqeY-25">
          <mxGeometry x="469.75" width="75" height="30" as="geometry">
            <mxRectangle width="75" height="30" as="alternateBounds" />
          </mxGeometry>
        </mxCell>
        <mxCell id="2MrhT0dnpiUWP16GjqeY-53" style="shape=partialRectangle;connectable=0;fillColor=none;top=0;left=0;bottom=0;right=0;align=left;spacingLeft=6;overflow=hidden;" vertex="1" parent="2MrhT0dnpiUWP16GjqeY-25">
          <mxGeometry x="544.75" width="99" height="30" as="geometry">
            <mxRectangle width="99" height="30" as="alternateBounds" />
          </mxGeometry>
        </mxCell>
        <mxCell id="2MrhT0dnpiUWP16GjqeY-61" style="shape=partialRectangle;connectable=0;fillColor=none;top=0;left=0;bottom=0;right=0;align=left;spacingLeft=6;overflow=hidden;" vertex="1" parent="2MrhT0dnpiUWP16GjqeY-25">
          <mxGeometry x="643.75" width="87.25" height="30" as="geometry">
            <mxRectangle width="87.25" height="30" as="alternateBounds" />
          </mxGeometry>
        </mxCell>
        <mxCell id="2MrhT0dnpiUWP16GjqeY-65" style="shape=partialRectangle;connectable=0;fillColor=none;top=0;left=0;bottom=0;right=0;align=left;spacingLeft=6;overflow=hidden;" vertex="1" parent="2MrhT0dnpiUWP16GjqeY-25">
          <mxGeometry x="731" width="138" height="30" as="geometry">
            <mxRectangle width="138" height="30" as="alternateBounds" />
          </mxGeometry>
        </mxCell>
        <mxCell id="2MrhT0dnpiUWP16GjqeY-69" style="shape=partialRectangle;connectable=0;fillColor=none;top=0;left=0;bottom=0;right=0;align=left;spacingLeft=6;overflow=hidden;" vertex="1" parent="2MrhT0dnpiUWP16GjqeY-25">
          <mxGeometry x="869" width="138" height="30" as="geometry">
            <mxRectangle width="138" height="30" as="alternateBounds" />
          </mxGeometry>
        </mxCell>
        <mxCell id="2MrhT0dnpiUWP16GjqeY-73" style="shape=partialRectangle;connectable=0;fillColor=none;top=0;left=0;bottom=0;right=0;align=left;spacingLeft=6;overflow=hidden;" vertex="1" parent="2MrhT0dnpiUWP16GjqeY-25">
          <mxGeometry x="1007" width="88.75" height="30" as="geometry">
            <mxRectangle width="88.75" height="30" as="alternateBounds" />
          </mxGeometry>
        </mxCell>
        <mxCell id="2MrhT0dnpiUWP16GjqeY-77" style="shape=partialRectangle;connectable=0;fillColor=none;top=0;left=0;bottom=0;right=0;align=left;spacingLeft=6;overflow=hidden;" vertex="1" parent="2MrhT0dnpiUWP16GjqeY-25">
          <mxGeometry x="1095.75" width="88.75" height="30" as="geometry">
            <mxRectangle width="88.75" height="30" as="alternateBounds" />
          </mxGeometry>
        </mxCell>
        <mxCell id="2MrhT0dnpiUWP16GjqeY-81" style="shape=partialRectangle;connectable=0;fillColor=none;top=0;left=0;bottom=0;right=0;align=left;spacingLeft=6;overflow=hidden;" vertex="1" parent="2MrhT0dnpiUWP16GjqeY-25">
          <mxGeometry x="1184.5" width="66.5" height="30" as="geometry">
            <mxRectangle width="66.5" height="30" as="alternateBounds" />
          </mxGeometry>
        </mxCell>
        <mxCell id="2MrhT0dnpiUWP16GjqeY-28" value="" style="shape=tableRow;horizontal=0;startSize=0;swimlaneHead=0;swimlaneBody=0;fillColor=none;collapsible=0;dropTarget=0;points=[[0,0.5],[1,0.5]];portConstraint=eastwest;top=0;left=0;right=0;bottom=0;" vertex="1" parent="2MrhT0dnpiUWP16GjqeY-18">
          <mxGeometry y="158" width="1251" height="30" as="geometry" />
        </mxCell>
        <mxCell id="2MrhT0dnpiUWP16GjqeY-34" style="shape=partialRectangle;connectable=0;fillColor=none;top=0;left=0;bottom=0;right=0;editable=1;overflow=hidden;" vertex="1" parent="2MrhT0dnpiUWP16GjqeY-28">
          <mxGeometry width="30" height="30" as="geometry">
            <mxRectangle width="30" height="30" as="alternateBounds" />
          </mxGeometry>
        </mxCell>
        <mxCell id="2MrhT0dnpiUWP16GjqeY-29" value="" style="shape=partialRectangle;connectable=0;fillColor=none;top=0;left=0;bottom=0;right=0;editable=1;overflow=hidden;" vertex="1" parent="2MrhT0dnpiUWP16GjqeY-28">
          <mxGeometry x="30" width="30" height="30" as="geometry">
            <mxRectangle width="30" height="30" as="alternateBounds" />
          </mxGeometry>
        </mxCell>
        <mxCell id="2MrhT0dnpiUWP16GjqeY-30" value="Row 3" style="shape=partialRectangle;connectable=0;fillColor=none;top=0;left=0;bottom=0;right=0;align=left;spacingLeft=6;overflow=hidden;" vertex="1" parent="2MrhT0dnpiUWP16GjqeY-28">
          <mxGeometry x="60" width="52.75" height="30" as="geometry">
            <mxRectangle width="52.75" height="30" as="alternateBounds" />
          </mxGeometry>
        </mxCell>
        <mxCell id="2MrhT0dnpiUWP16GjqeY-38" style="shape=partialRectangle;connectable=0;fillColor=none;top=0;left=0;bottom=0;right=0;align=left;spacingLeft=6;overflow=hidden;" vertex="1" parent="2MrhT0dnpiUWP16GjqeY-28">
          <mxGeometry x="112.75" width="90" height="30" as="geometry">
            <mxRectangle width="90" height="30" as="alternateBounds" />
          </mxGeometry>
        </mxCell>
        <mxCell id="2MrhT0dnpiUWP16GjqeY-42" style="shape=partialRectangle;connectable=0;fillColor=none;top=0;left=0;bottom=0;right=0;align=left;spacingLeft=6;overflow=hidden;" vertex="1" parent="2MrhT0dnpiUWP16GjqeY-28">
          <mxGeometry x="202.75" width="110" height="30" as="geometry">
            <mxRectangle width="110" height="30" as="alternateBounds" />
          </mxGeometry>
        </mxCell>
        <mxCell id="2MrhT0dnpiUWP16GjqeY-46" style="shape=partialRectangle;connectable=0;fillColor=none;top=0;left=0;bottom=0;right=0;align=left;spacingLeft=6;overflow=hidden;" vertex="1" parent="2MrhT0dnpiUWP16GjqeY-28">
          <mxGeometry x="312.75" width="80" height="30" as="geometry">
            <mxRectangle width="80" height="30" as="alternateBounds" />
          </mxGeometry>
        </mxCell>
        <mxCell id="2MrhT0dnpiUWP16GjqeY-50" style="shape=partialRectangle;connectable=0;fillColor=none;top=0;left=0;bottom=0;right=0;align=left;spacingLeft=6;overflow=hidden;" vertex="1" parent="2MrhT0dnpiUWP16GjqeY-28">
          <mxGeometry x="392.75" width="77" height="30" as="geometry">
            <mxRectangle width="77" height="30" as="alternateBounds" />
          </mxGeometry>
        </mxCell>
        <mxCell id="2MrhT0dnpiUWP16GjqeY-58" style="shape=partialRectangle;connectable=0;fillColor=none;top=0;left=0;bottom=0;right=0;align=left;spacingLeft=6;overflow=hidden;" vertex="1" parent="2MrhT0dnpiUWP16GjqeY-28">
          <mxGeometry x="469.75" width="75" height="30" as="geometry">
            <mxRectangle width="75" height="30" as="alternateBounds" />
          </mxGeometry>
        </mxCell>
        <mxCell id="2MrhT0dnpiUWP16GjqeY-54" style="shape=partialRectangle;connectable=0;fillColor=none;top=0;left=0;bottom=0;right=0;align=left;spacingLeft=6;overflow=hidden;" vertex="1" parent="2MrhT0dnpiUWP16GjqeY-28">
          <mxGeometry x="544.75" width="99" height="30" as="geometry">
            <mxRectangle width="99" height="30" as="alternateBounds" />
          </mxGeometry>
        </mxCell>
        <mxCell id="2MrhT0dnpiUWP16GjqeY-62" style="shape=partialRectangle;connectable=0;fillColor=none;top=0;left=0;bottom=0;right=0;align=left;spacingLeft=6;overflow=hidden;" vertex="1" parent="2MrhT0dnpiUWP16GjqeY-28">
          <mxGeometry x="643.75" width="87.25" height="30" as="geometry">
            <mxRectangle width="87.25" height="30" as="alternateBounds" />
          </mxGeometry>
        </mxCell>
        <mxCell id="2MrhT0dnpiUWP16GjqeY-66" style="shape=partialRectangle;connectable=0;fillColor=none;top=0;left=0;bottom=0;right=0;align=left;spacingLeft=6;overflow=hidden;" vertex="1" parent="2MrhT0dnpiUWP16GjqeY-28">
          <mxGeometry x="731" width="138" height="30" as="geometry">
            <mxRectangle width="138" height="30" as="alternateBounds" />
          </mxGeometry>
        </mxCell>
        <mxCell id="2MrhT0dnpiUWP16GjqeY-70" style="shape=partialRectangle;connectable=0;fillColor=none;top=0;left=0;bottom=0;right=0;align=left;spacingLeft=6;overflow=hidden;" vertex="1" parent="2MrhT0dnpiUWP16GjqeY-28">
          <mxGeometry x="869" width="138" height="30" as="geometry">
            <mxRectangle width="138" height="30" as="alternateBounds" />
          </mxGeometry>
        </mxCell>
        <mxCell id="2MrhT0dnpiUWP16GjqeY-74" style="shape=partialRectangle;connectable=0;fillColor=none;top=0;left=0;bottom=0;right=0;align=left;spacingLeft=6;overflow=hidden;" vertex="1" parent="2MrhT0dnpiUWP16GjqeY-28">
          <mxGeometry x="1007" width="88.75" height="30" as="geometry">
            <mxRectangle width="88.75" height="30" as="alternateBounds" />
          </mxGeometry>
        </mxCell>
        <mxCell id="2MrhT0dnpiUWP16GjqeY-78" style="shape=partialRectangle;connectable=0;fillColor=none;top=0;left=0;bottom=0;right=0;align=left;spacingLeft=6;overflow=hidden;" vertex="1" parent="2MrhT0dnpiUWP16GjqeY-28">
          <mxGeometry x="1095.75" width="88.75" height="30" as="geometry">
            <mxRectangle width="88.75" height="30" as="alternateBounds" />
          </mxGeometry>
        </mxCell>
        <mxCell id="2MrhT0dnpiUWP16GjqeY-82" style="shape=partialRectangle;connectable=0;fillColor=none;top=0;left=0;bottom=0;right=0;align=left;spacingLeft=6;overflow=hidden;" vertex="1" parent="2MrhT0dnpiUWP16GjqeY-28">
          <mxGeometry x="1184.5" width="66.5" height="30" as="geometry">
            <mxRectangle width="66.5" height="30" as="alternateBounds" />
          </mxGeometry>
        </mxCell>
      </root>
    </mxGraphModel>
  </diagram>
</mxfile>
